<svg id="vector" xmlns="http://www.w3.org/2000/svg" width="108.0d" height="108.0d" viewBox="0 0 108.0 108.0"><g transform="translate(12.96, 12.96) scale(0.18860294, 0.18860294)" id="g_0"><path fill="#630800ff" d="M0,0h435.2v435.2h-435.2z"/><path fill="#d23327ff" d="M190.6,87.8c7.9,-2.2 16.2,-2 24.3,-2.7c-0.1,14.2 0.1,28.5 -0.1,42.7c-4.9,0.1 -9.7,0.7 -14.5,1.3c-18.5,3.3 -35.6,13 -48.9,26.2c-5.7,6.3 -10.9,13 -14.5,20.7c-2.3,4.9 -4.9,9.6 -6.2,14.9c-1.3,4.6 -2.8,9.2 -3.1,13.9c-0.4,4.5 -1.2,8.9 -1.3,13.4c-0.2,4.3 0.9,8.5 1.3,12.7c1.1,10.4 5.1,20.2 9.8,29.4c4.5,8.7 10.8,16.4 17.9,23.2c5,4.7 10.8,8.5 16.6,12.1c3.7,2.5 8,3.8 12,5.6c4.8,2.2 10,3.2 15.1,4.3c9.4,1.6 18.9,2.3 28.4,1.5c4.9,-0.8 9.6,-2.3 14.5,-3.2c4,-0.9 7.7,-2.8 11.5,-4.4c18.1,-7.9 33.2,-22.3 42.4,-39.7c3.6,-7.1 6.5,-14.5 8.2,-22.3c-8.6,-0.2 -17.3,0.3 -25.9,-0.1c1.1,-2.2 2.6,-4.1 4,-6.1c4.2,-5.8 8.2,-11.7 12.5,-17.4c9.3,-12.2 17.7,-25.2 27.1,-37.4c1.9,-2.6 3.6,-5.4 5.4,-8c0.2,0 0.6,0 0.8,0c3.2,4.3 6.1,8.7 9.2,13c7.4,9.7 14,19.9 21.4,29.6c6.3,8.7 12.5,17.6 18.8,26.4c-10.2,0.3 -20.3,-0.2 -30.5,0.2c-0.3,6 -1.8,11.8 -3.6,17.5c-1.2,4.8 -2.9,9.4 -4.9,13.8c-6.6,16 -16.6,30.5 -28.9,42.6c-15,15.4 -34.3,26.3 -54.8,32.6c-7,2.7 -14.5,3.3 -21.8,4.7c-10.6,1.2 -21.3,1.4 -31.9,0.4c-5,-0.4 -9.7,-2.1 -14.7,-3c-3.8,-0.6 -7.4,-2 -11.1,-3c-27.9,-9.2 -52.9,-27.8 -68.9,-52.5c-7.5,-11 -12.8,-23.3 -16.8,-36c-1.5,-4.5 -2.3,-9.1 -3.4,-13.6c-1.2,-5.2 -1.4,-10.6 -1.7,-15.9c-1.2,-16.7 0.7,-33.8 6.6,-49.6c6.1,-18.7 16.5,-36 30.1,-50.2c14.6,-14.9 32.7,-26.3 52.4,-33.3C178.9,90.2 184.8,89.3 190.6,87.8z"/></g><g transform="translate(11.34, 11.34) scale(0.1960478, 0.1960478)" id="g_0"><path fill="#34495eff" d="M300.6,217.6c0,45.8 -37.1,83 -83,83c-45.8,0 -83,-37.1 -83,-83c0,-45.8 37.1,-83 83,-83S300.6,171.7 300.6,217.6z"/><path fill="#2c3e50ff" d="M217.6,134.6c-50,0 -90.5,40.5 -90.5,90.5h15.1c0,-41.7 33.8,-75.4 75.4,-75.4c41.7,0 75.4,33.8 75.4,75.4h15.1C308.1,175.1 267.6,134.6 217.6,134.6z"/><path fill="#bdc3c7ff" d="M225.2,210v15.1h7.5H278c4.2,0 7.5,-3.4 7.5,-7.5c0,-4.2 -3.4,-7.5 -7.5,-7.5h-45.2h-7.6V210z"/><path fill="#bdc3c7ff" d="M217.6,164.8c-4.2,0 -7.5,3 -7.5,7.5v30.2v7.5h15.1v-7.5v-30.2C225.2,167.8 221.8,164.8 217.6,164.8z"/><path fill="#c0392bff" d="M172.6,257.56l37.33,-37.33l5.3,5.3l-37.33,37.33z"/><path fill="#bdc3c7ff" d="M217.6,202.5c-8.3,0 -15.1,6.8 -15.1,15.1s6.7,15.1 15.1,15.1c8.3,0 15.1,-6.8 15.1,-15.1C232.7,209.3 226,202.5 217.6,202.5zM217.6,210c4.2,0 7.5,3 7.5,7.5c0,3.8 -3.4,7.5 -7.5,7.5c-4.2,0 -7.5,-3.8 -7.5,-7.5C210.1,213 213.5,210 217.6,210z"/><path fill="#606060ff" d="M217.6,127c-50,0 -90.5,40 -90.5,90.5c0,49.8 40.5,90.5 90.5,90.5s90.5,-40.7 90.5,-90.5C308.1,167 267.6,127 217.6,127zM217.6,142.1c41.7,0 75.4,33.2 75.4,75.4c0,41.5 -33.8,75.4 -75.4,75.4c-41.7,0 -75.4,-33.9 -75.4,-75.4C142.2,175.3 176,142.1 217.6,142.1z"/><path fill="#2c3e50ff" d="M225.2,217.5c0,4.2 -3.4,7.5 -7.5,7.5c-4.2,0 -7.5,-3.4 -7.5,-7.5c0,-4.2 3.4,-7.5 7.5,-7.5S225.2,213.4 225.2,217.5z"/><path fill="#95a5a6ff" d="M230.7,210c1.3,2.3 2.1,4.5 2.1,7.5c0,2.3 -0.8,5.3 -2.1,7.5h2.1h6.1c0.9,-3 1.4,-5.3 1.4,-7.5c0,-3 -0.6,-5.3 -1.4,-7.5h-6.1H230.7z"/></g></svg>