<svg id="vector" xmlns="http://www.w3.org/2000/svg" width="108.0d" height="108.0d" viewBox="0 0 24.0 24.0"><g transform="translate(5.04, 5.04) scale(0.58, 0.58)" id="g_0"><g><path fill="#ffffffff" d="M7,20h10v1H7zM7,3h7v1H7z" fill-opacity="0.3"/><path fill="#ffffffff" d="M17,18L7,18L7,6h7L14,4L7,4L7,3h7L14,1.01L7,1a2,2 0,0 0,-2 2v18c0,1.1 0.9,2 2,2h10a2,2 0,0 0,2 -2v-5h-2ZM17,21L7,21v-1h10Z"/><path fill="#ffffffff" d="M19,3h-2v7.17l-2.59,-2.58L14,8l-1,1 1,1 4,4 3,-3 2,-2 -1.41,-1.41 -0.59,0.59 -2,1.99Z"/></g><path fill="#ffffffff" d="m5.19,14.87 l-2.94,-1.28v-0.7l2.94,-1.27v0.84l-2.08,0.77 2.08,0.79ZM10.22,14.62v0.75L7.31,15.37c0.03,-0.29 0.13,-0.56 0.29,-0.82 0.16,-0.26 0.47,-0.6 0.94,-1.03 0.38,-0.35 0.61,-0.58 0.69,-0.7a0.88,0.88 0,0 0,0.18 -0.51,0.57 0.57,0 0,0 -0.16,-0.42 0.57,0.57 0,0 0,-0.42 -0.15,0.6 0.6,0 0,0 -0.43,0.15 0.77,0.77 0,0 0,-0.18 0.51l-0.81,-0.08c0.05,-0.45 0.2,-0.77 0.46,-0.97 0.26,-0.2 0.59,-0.29 0.98,-0.29 0.42,0 0.76,0.11 1,0.34 0.25,0.23 0.37,0.51 0.37,0.86 0,0.19 -0.04,0.37 -0.11,0.55 -0.07,0.18 -0.18,0.36 -0.33,0.55 -0.1,0.13 -0.29,0.31 -0.55,0.55 -0.27,0.24 -0.44,0.4 -0.51,0.48 -0.07,0.08 -0.13,0.15 -0.17,0.23ZM10.75,14.19 L11.56,14.09c0.03,0.21 0.09,0.37 0.19,0.48 0.11,0.12 0.23,0.17 0.38,0.17a0.5,0.5 0,0 0,0.4 -0.19c0.1,-0.13 0.16,-0.31 0.16,-0.53 0,-0.21 -0.05,-0.38 -0.16,-0.5a0.46,0.46 0,0 0,-0.37 -0.18c-0.1,0 -0.21,0.02 -0.35,0.06l0.09,-0.69c0.22,0.01 0.38,-0.04 0.49,-0.13 0.12,-0.1 0.17,-0.23 0.17,-0.39a0.46,0.46 0,0 0,-0.12 -0.33,0.45 0.45,0 0,0 -0.33,-0.12 0.48,0.48 0,0 0,-0.34 0.14,0.6 0.6,0 0,0 -0.18,0.39l-0.75,-0.11c0.06,-0.26 0.13,-0.46 0.24,-0.61a0.9,0.9 0,0 1,0.43 -0.36c0.19,-0.09 0.39,-0.13 0.62,-0.13 0.4,0 0.71,0.12 0.95,0.37 0.2,0.21 0.29,0.44 0.29,0.7 0,0.37 -0.2,0.67 -0.6,0.89 0.24,0.05 0.43,0.17 0.58,0.36 0.14,0.18 0.21,0.41 0.21,0.67 0,0.38 -0.13,0.71 -0.4,0.98 -0.28,0.27 -0.61,0.4 -1.02,0.4 -0.38,0 -0.7,-0.11 -0.95,-0.34 -0.25,-0.23 -0.4,-0.53 -0.44,-0.9Z"/></g></svg>