<svg style="background:#ffffffff" id="vector" xmlns="http://www.w3.org/2000/svg" width="192.0d" height="192.0d" viewBox="0 0 192.0 192.0"><path fill="#079d4dff" d="M77.93,75.02C89.9,68.15 101.93,61.4 113.92,54.56C115.77,55.35 117.58,56.25 119.33,57.23C105.5,65.07 91.69,72.94 77.85,80.76C71.45,77.09 65.01,73.48 58.6,69.81C59.61,68.46 60.68,67.16 61.82,65.91C67.2,68.94 72.53,72.05 77.93,75.02ZM77.93,75.02" id="path_0"/><path fill="#079d4dff" d="M77.86,86.5C93.25,77.78 108.62,69.05 124,60.32C125.4,61.39 126.74,62.54 128.04,63.73C111.35,73.29 94.59,82.73 77.87,92.23C69.78,87.62 61.65,83.07 53.59,78.43C54.3,76.93 55.03,75.44 55.85,74C63.19,78.17 70.53,82.33 77.86,86.5ZM77.86,86.5" id="path_1"/><path fill="#079d4dff" d="M77.87,97.97C95.77,87.82 113.67,77.64 131.58,67.49C132.64,68.79 133.65,70.13 134.6,71.52C115.69,82.25 96.78,92.99 77.87,103.71C68.77,98.52 59.63,93.41 50.55,88.17C50.93,86.5 51.32,84.83 51.81,83.19C60.5,88.12 69.18,93.04 77.87,97.97ZM77.87,97.97" id="path_2"/><path fill="#079d4dff" d="M77.86,109.45C97.63,98.25 117.38,87.01 137.15,75.81C141.39,84 143.06,93.5 141.81,102.64C140.2,114.89 133.25,126.29 123.2,133.44C110.01,143.14 91.56,144.97 76.72,138.03C66.85,133.59 58.63,125.55 54.07,115.72C50.8,108.86 49.38,101.15 49.89,93.57C59.21,98.87 68.54,104.16 77.86,109.45ZM77.86,109.45" id="path_3"/></svg>