<svg id="vector" xmlns="http://www.w3.org/2000/svg" width="108.0d" height="108.0d" viewBox="0 0 600.0 600.0"><path fill="@color/colorAccent" d="m215.28,172.36l69.35,-47.77l73.52,14.57l51.29,60.9l36.93,132.9l3.53,13.36a193.57,183.03 0,0 1,-41.21 4.17c-104.93,0 -190.37,-79.28 -193.4,-178.13l-0.02,0z" stroke-width="1.0" id="path_0"/><path fill="@color/colorPrimary" d="m191.63,382.84l0.8,0c14.77,0 26.74,11.34 26.74,25.37a26.79,25.33 0,0 1,-28.31 25.33l-21.63,0a57.34,54.21 0,0 1,-50.52 -28.25a55.31,52.3 0,0 1,2.15 -53.95l2.15,-3.19a214.57,202.89 0,0 0,34.31 -110.44l0,-1.67a13.63,12.89 0,0 1,-0.04 -1.08l0,-4.07a16.77,15.86 0,0 1,0.15 -1.89a138.71,131.15 0,0 1,42.95 -88.95a143.03,135.24 0,0 1,99.62 -37.91c37.34,0 72.73,13.46 99.62,37.91a138.71,131.15 0,0 1,42.95 88.95a16.9,15.98 0,0 1,0.13 1.89l0,3.5c0.04,0.61 0.02,1.22 -0.02,1.81l0,1.48a214.55,202.87 0,0 0,34.29 110.46l2.15,3.19c11.27,16.53 12.08,36.69 2.15,53.95a57.34,54.21 0,0 1,-50.52 28.25l-129.53,0a26.79,25.33 0,0 1,-30.59 -25.12c0,-13.86 11.72,-25.12 26.25,-25.37l0,-0.14l109.49,0c9.31,0 17.46,-4.55 21.8,-12.16a23.39,22.12 0,0 0,-0.9 -22.73l-1.76,-2.6a198.3,187.5 0,0 1,-31.39 -106.03c-1.25,-47.16 -43.43,-85.5 -94.12,-85.5s-92.87,38.34 -94.1,85.5l0,4.31a198.3,187.5 0,0 1,-31.41 101.72l-1.76,2.6c-4.73,6.97 -5.07,15.45 -0.92,22.73c4.04,7.07 11.35,11.48 19.82,12.09zM230.37,457.2l128.99,0a21.5,20.33 0,0 1,0 40.65l-128.99,0a21.5,20.33 0,0 1,0 -40.65z" stroke-width="1.0" id="path_1"/></svg>