<?xml version="1.0" encoding="utf-8"?>
<svg xmlns="http://www.w3.org/2000/svg" viewBox="0 0 108 108" style="background-color: #2B7CD3;">
    <g>
        <path d="M0,0H61a0,0 0,0 1,0 0V15A46,46 0,0 1,15 61H0a0,0 0,0 1,0 0V0A0,0 0,0 1,0 0Z" fill="#00000054" /> <!-- @android:color/system_accent2_100 -->
        <path d="M0,0H55a0,0 0,0 1,0 0V15A40,40 0,0 1,15 55H0a0,0 0,0 1,0 0V0A0,0 0,0 1,0 0Z" fill="#000000AA" /> <!-- @android:color/system_accent2_100 -->
        <path d="M0,0H49a0,0 0,0 1,0 0V15A34,34 0,0 1,15 49H0a0,0 0,0 1,0 0V0A0,0 0,0 1,0 0Z" fill="#000000FF" /> <!-- @android:color/system_accent2_100 -->
    </g>
    <g>
        <path d="M65,37h43a0,0 0,0 1,0 0v71a0,0 0,0 1,0 0H37a0,0 0,0 1,0 0V65A28,28 0,0 1,65 37Z" fill="#00000080" /> <!-- @android:color/system_accent2_50 -->
        <path d="M65,53L65,53A12,12 0,0 1,77 65L77,65A12,12 0,0 1,65 77L65,77A12,12 0,0 1,53 65L53,65A12,12 0,0 1,65 53z" fill="#00000099" /> <!-- @android:color/system_accent1_600 -->
        <path d="M65,56.92L65,56.92A2,2 0,0 1,67 58.92L67,64.92A2,2 0,0 1,65 66.92L65,66.92A2,2 0,0 1,63 64.92L63,58.92A2,2 0,0 1,65 56.92z" fill="#00000080" /> <!-- @android:color/system_accent2_50 -->
        <path d="M65,69L65,69A2,2 0,0 1,67 71L67,71A2,2 0,0 1,65 73L65,73A2,2 0,0 1,63 71L63,71A2,2 0,0 1,65 69z" fill="#00000080" /> <!-- @android:color/system_accent2_50 -->
    </g>
</svg>
