<svg id="vector" xmlns="http://www.w3.org/2000/svg" width="48.0d" height="48.0d" viewBox="0 0 1024.0 1024.0"><path fill="#030000ff" d="M480.1,192.2v-0.2h-288v64H544v-63.8h-63.9z" id="path_0"/><path fill="#e6c27cff" d="M672,274.7V448H544.1v416H150.4c-47.6,0 -86.4,-37.1 -86.4,-82.7V274.7c0,-45.6 38.8,-82.7 86.4,-82.7h41.7v155.8l351.9,0.2 0.1,-92v-63.8h-63.9v-0.2h105.5c47.5,0.1 86.3,37.1 86.3,82.7z" id="path_1"/><path fill="#727272ff" d="M480.1,192.2v-0.2l0.1,-127.9 -224,-0.1 -0.1,128h-64v155.8l351.9,0.2 0.1,-92v-63.8h-64zM320.1,192v-64l95.9,0.1v64h-48l-47.9,-0.1z" id="path_2"/><path fill="#727272ff" d="M480.1,384v576h329L960,783.4L960,384L480.1,384zM544.1,448L896,448v256L722.1,704v192h-178L544.1,448zM786.1,888.4L786.1,768L889,768L786.1,888.4z" id="path_3"/><path fill="#727272ff" d="M607.1,512H831v64H607.1zM607.1,608H831v64H607.1z" id="path_4"/></svg>