<svg id="vector" xmlns="http://www.w3.org/2000/svg" width="108.0d" height="108.0d" viewBox="0 0 108.0 108.0"><path fill="#3ddc84ff" d="M0,0h108v108h-108z" id="path_0"/><path fill="#00000000" d="M9,0L9,108" stroke="#ffffff33" stroke-width="0.8" id="path_1"/><path fill="#00000000" d="M19,0L19,108" stroke="#ffffff33" stroke-width="0.8" id="path_2"/><path fill="#00000000" d="M29,0L29,108" stroke="#ffffff33" stroke-width="0.8" id="path_3"/><path fill="#00000000" d="M39,0L39,108" stroke="#ffffff33" stroke-width="0.8" id="path_4"/><path fill="#00000000" d="M49,0L49,108" stroke="#ffffff33" stroke-width="0.8" id="path_5"/><path fill="#00000000" d="M59,0L59,108" stroke="#ffffff33" stroke-width="0.8" id="path_6"/><path fill="#00000000" d="M69,0L69,108" stroke="#ffffff33" stroke-width="0.8" id="path_7"/><path fill="#00000000" d="M79,0L79,108" stroke="#ffffff33" stroke-width="0.8" id="path_8"/><path fill="#00000000" d="M89,0L89,108" stroke="#ffffff33" stroke-width="0.8" id="path_9"/><path fill="#00000000" d="M99,0L99,108" stroke="#ffffff33" stroke-width="0.8" id="path_10"/><path fill="#00000000" d="M0,9L108,9" stroke="#ffffff33" stroke-width="0.8" id="path_11"/><path fill="#00000000" d="M0,19L108,19" stroke="#ffffff33" stroke-width="0.8" id="path_12"/><path fill="#00000000" d="M0,29L108,29" stroke="#ffffff33" stroke-width="0.8" id="path_13"/><path fill="#00000000" d="M0,39L108,39" stroke="#ffffff33" stroke-width="0.8" id="path_14"/><path fill="#00000000" d="M0,49L108,49" stroke="#ffffff33" stroke-width="0.8" id="path_15"/><path fill="#00000000" d="M0,59L108,59" stroke="#ffffff33" stroke-width="0.8" id="path_16"/><path fill="#00000000" d="M0,69L108,69" stroke="#ffffff33" stroke-width="0.8" id="path_17"/><path fill="#00000000" d="M0,79L108,79" stroke="#ffffff33" stroke-width="0.8" id="path_18"/><path fill="#00000000" d="M0,89L108,89" stroke="#ffffff33" stroke-width="0.8" id="path_19"/><path fill="#00000000" d="M0,99L108,99" stroke="#ffffff33" stroke-width="0.8" id="path_20"/><path fill="#00000000" d="M19,29L89,29" stroke="#ffffff33" stroke-width="0.8" id="path_21"/><path fill="#00000000" d="M19,39L89,39" stroke="#ffffff33" stroke-width="0.8" id="path_22"/><path fill="#00000000" d="M19,49L89,49" stroke="#ffffff33" stroke-width="0.8" id="path_23"/><path fill="#00000000" d="M19,59L89,59" stroke="#ffffff33" stroke-width="0.8" id="path_24"/><path fill="#00000000" d="M19,69L89,69" stroke="#ffffff33" stroke-width="0.8" id="path_25"/><path fill="#00000000" d="M19,79L89,79" stroke="#ffffff33" stroke-width="0.8" id="path_26"/><path fill="#00000000" d="M29,19L29,89" stroke="#ffffff33" stroke-width="0.8" id="path_27"/><path fill="#00000000" d="M39,19L39,89" stroke="#ffffff33" stroke-width="0.8" id="path_28"/><path fill="#00000000" d="M49,19L49,89" stroke="#ffffff33" stroke-width="0.8" id="path_29"/><path fill="#00000000" d="M59,19L59,89" stroke="#ffffff33" stroke-width="0.8" id="path_30"/><path fill="#00000000" d="M69,19L69,89" stroke="#ffffff33" stroke-width="0.8" id="path_31"/><path fill="#00000000" d="M79,19L79,89" stroke="#ffffff33" stroke-width="0.8" id="path_32"/><path fill="@drawable/$ic_launcher_foreground__0" d="M31,63.928c0,0 6.4,-11 12.1,-13.1c7.2,-2.6 26,-1.4 26,-1.4l38.1,38.1L107,108.928l-32,-1L31,63.928z" id="path_0"/><path fill="#ffffffff" d="M65.3,45.828l3.8,-6.6c0.2,-0.4 0.1,-0.9 -0.3,-1.1c-0.4,-0.2 -0.9,-0.1 -1.1,0.3l-3.9,6.7c-6.3,-2.8 -13.4,-2.8 -19.7,0l-3.9,-6.7c-0.2,-0.4 -0.7,-0.5 -1.1,-0.3C38.8,38.328 38.7,38.828 38.9,39.228l3.8,6.6C36.2,49.428 31.7,56.028 31,63.928h46C76.3,56.028 71.8,49.428 65.3,45.828zM43.4,57.328c-0.8,0 -1.5,-0.5 -1.8,-1.2c-0.3,-0.7 -0.1,-1.5 0.4,-2.1c0.5,-0.5 1.4,-0.7 2.1,-0.4c0.7,0.3 1.2,1 1.2,1.8C45.3,56.528 44.5,57.328 43.4,57.328L43.4,57.328zM64.6,57.328c-0.8,0 -1.5,-0.5 -1.8,-1.2s-0.1,-1.5 0.4,-2.1c0.5,-0.5 1.4,-0.7 2.1,-0.4c0.7,0.3 1.2,1 1.2,1.8C66.5,56.528 65.6,57.328 64.6,57.328L64.6,57.328z" stroke="#00000000" stroke-width="1.0" fill-rule="nonzero" id="path_1"/></svg>