<svg id="vector" xmlns="http://www.w3.org/2000/svg" width="108.0d" height="108.0d" viewBox="0 0 601.0 601.0"><g transform="translate(165.275, 165.275) scale(0.45, 0.45)" id="g_0"><path fill="#9c27b0ff" d="M-449.5,-449.5h1500v1500h-1500z" stroke="#000000ff" stroke-width="1.0"/><path fill="#35495eff" d="M235.85,145.68h134.48c11.42,0 20.69,11.42 20.69,20.69v258.62c0,11.42 -9.27,20.69 -20.69,20.69h-134.48c-11.42,0 -20.69,-11.42 -20.69,-20.69V166.37c0,-11.42 9.27,-20.69 20.69,-20.69h0Z" stroke-width="0.0"/><path fill="#b0d3f0ff" d="M375.5,378.44v46.55c0,2.86 -2.32,5.17 -5.17,5.17h-134.48c-2.86,0 -5.17,-2.32 -5.17,-5.17v-46.55h144.83,-0.01ZM375.5,166.37v36.21h-144.83v-36.21c0,-2.86 2.32,-5.17 5.17,-5.17h16.97c2.23,0.03 4.2,1.46 4.9,3.56l1.61,4.85v0.03c1.4,4.23 5.37,7.08 9.81,7.08h67.89c4.44,0 8.41,-2.86 9.81,-7.08l1.61,-4.85v-0.03c0.7,-2.1 2.67,-3.53 4.9,-3.56h16.97c2.86,0 5.17,2.32 5.17,5.17h0.02Z" stroke-width="0.0"/><path fill="#90bae1ff" d="M230.67,202.57h144.83v175.86h-144.83z" stroke-width="0.0"/><path fill="#a5a5a4ff" d="M328.95,166.37c-1.37,0.03 -2.7,-0.54 -3.66,-1.51 -0.97,-0.97 -1.54,-2.29 -1.51,-3.66 0.03,-1.37 0.57,-2.7 1.51,-3.66 2.08,-1.92 5.25,-1.92 7.32,0 2.02,2.02 2.02,5.3 0,7.32 -0.99,0.94 -2.29,1.48 -3.66,1.51Z" stroke-width="0.0"/><path fill="#14a085ff" d="M251.36,393.95h10.34c2.86,0 5.17,2.86 5.17,5.17v10.34c0,2.86 -2.32,5.17 -5.17,5.17h-10.34c-2.86,0 -5.17,-2.86 -5.17,-5.17v-10.34c0,-2.86 2.32,-5.17 5.17,-5.17h0Z" stroke-width="0.0"/><path fill="#4482c3ff" d="M282.4,393.95h10.34c2.86,0 5.17,2.86 5.17,5.17v10.34c0,2.86 -2.32,5.17 -5.17,5.17h-10.34c-2.86,0 -5.17,-2.86 -5.17,-5.17v-10.34c0,-2.86 2.32,-5.17 5.17,-5.17Z" stroke-width="0.0"/><path fill="#14a085ff" d="M313.43,393.95h10.34c2.86,0 5.17,2.86 5.17,5.17v10.34c0,2.86 -2.32,5.17 -5.17,5.17h-10.34c-2.86,0 -5.17,-2.86 -5.17,-5.17v-10.34c0,-2.86 2.32,-5.17 5.17,-5.17Z" stroke-width="0.0"/><path fill="#e6e7e8ff" d="M344.47,393.95h10.34c2.86,0 5.17,2.86 5.17,5.17v10.34c0,2.86 -2.32,5.17 -5.17,5.17h-10.34c-2.86,0 -5.17,-2.86 -5.17,-5.17v-10.34c0,-2.86 2.32,-5.17 5.17,-5.17Z" stroke-width="0.0"/><path fill="#4482c3ff" d="M251.36,218.09h10.34c2.86,0 5.17,2.86 5.17,5.17v10.34c0,2.86 -2.32,5.17 -5.17,5.17h-10.34c-2.86,0 -5.17,-2.86 -5.17,-5.17v-10.34c0,-2.86 2.32,-5.17 5.17,-5.17h0Z" stroke-width="0.0"/><path fill="#cb9080ff" d="M282.4,218.09h10.34c2.86,0 5.17,2.86 5.17,5.17v10.34c0,2.86 -2.32,5.17 -5.17,5.17h-10.34c-2.86,0 -5.17,-2.86 -5.17,-5.17v-10.34c0,-2.86 2.32,-5.17 5.17,-5.17Z" stroke-width="0.0"/><path fill="#e6e7e8ff" d="M313.43,218.09h10.34c2.86,0 5.17,2.86 5.17,5.17v10.34c0,2.86 -2.32,5.17 -5.17,5.17h-10.34c-2.86,0 -5.17,-2.86 -5.17,-5.17v-10.34c0,-2.86 2.32,-5.17 5.17,-5.17Z" stroke-width="0.0"/><path fill="#4482c3ff" d="M344.47,218.09h10.34c2.86,0 5.17,2.86 5.17,5.17v10.34c0,2.86 -2.32,5.17 -5.17,5.17h-10.34c-2.86,0 -5.17,-2.86 -5.17,-5.17v-10.34c0,-2.86 2.32,-5.17 5.17,-5.17Z" stroke-width="0.0"/><path fill="#cb9080ff" d="M251.36,254.3h10.34c2.86,0 5.17,2.86 5.17,5.17v10.34c0,2.86 -2.32,5.17 -5.17,5.17h-10.34c-2.86,0 -5.17,-2.86 -5.17,-5.17v-10.34c0,-2.86 2.32,-5.17 5.17,-5.17h0Z" stroke-width="0.0"/><path fill="#e6e7e8ff" d="M282.4,254.3h10.34c2.86,0 5.17,2.86 5.17,5.17v10.34c0,2.86 -2.32,5.17 -5.17,5.17h-10.34c-2.86,0 -5.17,-2.86 -5.17,-5.17v-10.34c0,-2.86 2.32,-5.17 5.17,-5.17Z" stroke-width="0.0"/><path fill="#14a085ff" d="M313.43,254.3h10.34c2.86,0 5.17,2.86 5.17,5.17v10.34c0,2.86 -2.32,5.17 -5.17,5.17h-10.34c-2.86,0 -5.17,-2.86 -5.17,-5.17v-10.34c0,-2.86 2.32,-5.17 5.17,-5.17Z" stroke-width="0.0"/><path fill="#4482c3ff" d="M344.47,254.3h10.34c2.86,0 5.17,2.86 5.17,5.17v10.34c0,2.86 -2.32,5.17 -5.17,5.17h-10.34c-2.86,0 -5.17,-2.86 -5.17,-5.17v-10.34c0,-2.86 2.32,-5.17 5.17,-5.17Z" stroke-width="0.0"/><path fill="#e6e7e8ff" d="M251.36,290.5h10.34c2.86,0 5.17,2.86 5.17,5.17v10.34c0,2.86 -2.32,5.17 -5.17,5.17h-10.34c-2.86,0 -5.17,-2.86 -5.17,-5.17v-10.34c0,-2.86 2.32,-5.17 5.17,-5.17h0Z" stroke-width="0.0"/><path fill="#4482c3ff" d="M282.4,290.5h10.34c2.86,0 5.17,2.86 5.17,5.17v10.34c0,2.86 -2.32,5.17 -5.17,5.17h-10.34c-2.86,0 -5.17,-2.86 -5.17,-5.17v-10.34c0,-2.86 2.32,-5.17 5.17,-5.17Z" stroke-width="0.0"/><path fill="#14a085ff" d="M313.43,290.5h10.34c2.86,0 5.17,2.86 5.17,5.17v10.34c0,2.86 -2.32,5.17 -5.17,5.17h-10.34c-2.86,0 -5.17,-2.86 -5.17,-5.17v-10.34c0,-2.86 2.32,-5.17 5.17,-5.17Z" stroke-width="0.0"/><path fill="#e6e7e8ff" d="M344.47,290.5h10.34c2.86,0 5.17,2.86 5.17,5.17v10.34c0,2.86 -2.32,5.17 -5.17,5.17h-10.34c-2.86,0 -5.17,-2.86 -5.17,-5.17v-10.34c0,-2.86 2.32,-5.17 5.17,-5.17Z" stroke-width="0.0"/><path fill="#14a085ff" d="M251.36,326.71h10.34c2.86,0 5.17,2.86 5.17,5.17v10.34c0,2.86 -2.32,5.17 -5.17,5.17h-10.34c-2.86,0 -5.17,-2.86 -5.17,-5.17v-10.34c0,-2.86 2.32,-5.17 5.17,-5.17h0Z" stroke-width="0.0"/><path fill="#4482c3ff" d="M282.4,326.71h10.34c2.86,0 5.17,2.86 5.17,5.17v10.34c0,2.86 -2.32,5.17 -5.17,5.17h-10.34c-2.86,0 -5.17,-2.86 -5.17,-5.17v-10.34c0,-2.86 2.32,-5.17 5.17,-5.17Z" stroke-width="0.0"/><path fill="#e6e7e8ff" d="M313.43,326.71h10.34c2.86,0 5.17,2.86 5.17,5.17v10.34c0,2.86 -2.32,5.17 -5.17,5.17h-10.34c-2.86,0 -5.17,-2.86 -5.17,-5.17v-10.34c0,-2.86 2.32,-5.17 5.17,-5.17Z" stroke-width="0.0"/><path fill="#cb9080ff" d="M344.47,326.71h10.34c2.86,0 5.17,2.86 5.17,5.17v10.34c0,2.86 -2.32,5.17 -5.17,5.17h-10.34c-2.86,0 -5.17,-2.86 -5.17,-5.17v-10.34c0,-2.86 2.32,-5.17 5.17,-5.17Z" stroke-width="0.0"/><path fill="#e6e7e8ff" d="M313.43,368.09h-20.69c-2.86,0 -5.17,-2.32 -5.17,-5.17s2.32,-5.17 5.17,-5.17h20.69c2.86,0 5.17,2.32 5.17,5.17s-2.32,5.17 -5.17,5.17Z" stroke-width="0.0"/><path fill="#2c3e50ff" d="M359.98,192.23h-10.34c-2.86,0 -5.17,-2.32 -5.17,-5.17s2.32,-5.17 5.17,-5.17h10.34c2.86,0 5.17,2.32 5.17,5.17s-2.32,5.17 -5.17,5.17ZM256.54,192.23h-10.34c-2.86,0 -5.17,-2.32 -5.17,-5.17s2.32,-5.17 5.17,-5.17h10.34c2.86,0 5.17,2.32 5.17,5.17s-2.32,5.17 -5.17,5.17Z" stroke-width="0.0"/></g><g transform="translate(-112.575, -112.575) scale(1.15, 1.15)" id="g_0"><path fill="#cfd8dcff" d="M966,560.8c-4.8,0 -8.6,3.9 -8.6,8.6v362.1c0,4.8 3.9,8.6 8.6,8.6s8.6,-3.9 8.6,-8.6v-362.1c0,-4.8 -3.9,-8.6 -8.6,-8.6ZM931.5,526.4h-362.1c-4.8,0 -8.6,3.9 -8.6,8.6s3.9,8.6 8.6,8.6h362.1c4.8,0 8.6,-3.9 8.6,-8.6s-3.9,-8.6 -8.6,-8.6ZM931.5,957.4h-362.1c-4.8,0 -8.6,3.9 -8.6,8.6s3.9,8.6 8.6,8.6h362.1c4.8,0 8.6,-3.9 8.6,-8.6s-3.9,-8.6 -8.6,-8.6ZM535,560.8c-4.8,0 -8.6,3.9 -8.6,8.6v362.1c0,4.8 3.9,8.6 8.6,8.6s8.6,-3.9 8.6,-8.6v-362.1c0,-4.8 -3.9,-8.6 -8.6,-8.6Z" stroke-width="0.0"/><path fill="#57a0d7ff" d="M500.5,500.5h69v69h-69z" stroke-width="0.0"/><path fill="#57a0d7ff" d="M931.5,500.5h69v69h-69z" stroke-width="0.0"/><path fill="#57a0d7ff" d="M500.5,931.5h69v69h-69z" stroke-width="0.0"/><path fill="#57a0d7ff" d="M931.5,931.5h69v69h-69z" stroke-width="0.0"/></g></svg>