<svg style="background-color:#2196f3ff" id="vector" xmlns="http://www.w3.org/2000/svg" width="108.0" height="108.0" viewBox="0 0 108.0 108.0"><g transform="translate(29.16, 29.619205) scale(0.2888372, 0.2888372)" id="g_0"><g transform="translate(0, 134.85938)"><path fill="#ffffffff" d="M79.03125,-14.609375L79.03125,-3.171875Q68.765625,1,53.859375,1Q32.140625,1,20.609375,-12.8125Q9.078125,-26.640625,9.078125,-52.109375Q9.078125,-76.515625,21.65625,-90.75Q34.25,-105,56.046875,-105Q71.515625,-105,82.96875,-98.921875L77.484375,-87.90625Q66.65625,-93.40625,56.046875,-93.40625Q40.921875,-93.40625,31.921875,-82.234375Q22.921875,-71.0625,22.921875,-51.96875Q22.921875,-31.734375,31.359375,-21.125Q39.796875,-10.515625,56.046875,-10.515625Q65.1875,-10.515625,79.03125,-14.609375Z"/><path fill="#ffffffff" d="M130.51562,-110Q137.96875,-110,137.96875,-101.9375Q137.96875,-97.84375,135.75,-95.828125Q133.53125,-93.8125,130.51562,-93.8125Q122.984375,-93.8125,122.984375,-101.9375Q122.984375,-110,130.51562,-110ZM124.046875,-67.84375L105.125,-69.328125L105.125,-78.03125L136.84375,-78.03125L136.84375,-10.4375L161.59375,-9.015625L161.59375,-0.3125L99.859375,-0.3125L99.859375,-9.015625L124.046875,-10.4375L124.046875,-67.84375Z"/></g></g></svg>
