<svg id="vector" xmlns="http://www.w3.org/2000/svg" width="108.0d" height="108.0d" viewBox="0 0 108.0 108.0"><path fill="#999999" d="M0,0h108v108h-108z" id="path_0"/><g id="g_0"><path fill="#dddddd" d="M0,0H61a0,0 0,0 1,0 0V15A46,46 0,0 1,15 61H0a0,0 0,0 1,0 0V0A0,0 0,0 1,0 0Z" fill-opacity="0.33"/><path fill="#dddddd" d="M0,0H55a0,0 0,0 1,0 0V15A40,40 0,0 1,15 55H0a0,0 0,0 1,0 0V0A0,0 0,0 1,0 0Z" fill-opacity="0.67"/><path fill="#dddddd" d="M0,0H49a0,0 0,0 1,0 0V15A34,34 0,0 1,15 49H0a0,0 0,0 1,0 0V0A0,0 0,0 1,0 0Z"/></g><g id="g_1"><path fill="#f0f0f0" d="M65,37h43a0,0 0,0 1,0 0v71a0,0 0,0 1,0 0H37a0,0 0,0 1,0 0V65A28,28 0,0 1,65 37Z"/><path fill="#999999" d="M65,53L65,53A12,12 0,0 1,77 65L77,65A12,12 0,0 1,65 77L65,77A12,12 0,0 1,53 65L53,65A12,12 0,0 1,65 53z"/><path fill="#f0f0f0" d="M65,56.92L65,56.92A2,2 0,0 1,67 58.92L67,64.92A2,2 0,0 1,65 66.92L65,66.92A2,2 0,0 1,63 64.92L63,58.92A2,2 0,0 1,65 56.92z"/><path fill="#f0f0f0" d="M65,69L65,69A2,2 0,0 1,67 71L67,71A2,2 0,0 1,65 73L65,73A2,2 0,0 1,63 71L63,71A2,2 0,0 1,65 69z"/></g></svg>