<svg style="background-color:@android:color/system_accent1_600" id="vector" xmlns="http://www.w3.org/2000/svg" width="833.0" height="833.0" viewBox="0 0 900.0 833.0"><g transform="translate(-120.0, 100.0) scale(0.58, 0.58)" id="g_0"><path fill="#ffffffff" d="M700.9,729.8c0.1,-58.2 38.7,-109.5 95.4,-128.4c7,-2.3 11.6,-9 11.6,-16.3V354.3c0,-45.3 18.8,-88.7 52.2,-120.7c33.4,-32 78.8,-50 126.1,-50c47.3,0 92.7,18 126.1,50c19.7,18.9 34.4,41.7 43,66.6c6,17.3 9.2,35.5 9.2,54.1v170c0,0.2 -0.3,0.4 -0.5,0.2l-146.5,-140.8c-11.1,-10.7 -3.6,-29.4 11.8,-29.4h44.6c11.9,0 31.8,-20.4 31.8,-20.4s1.4,-5.6 -0.4,-15.6c-3.2,-17.5 -13.5,-32.9 -28.3,-42.8c-21.4,-14.3 -51.1,-23.8 -75.2,-24.9c-61.3,-2.7 -122.6,46.5 -122.6,105.1V585c0,7.4 4.7,14 11.7,16.4c56.8,19.2 95.3,70.8 95.3,129.4c0,75.4 -64.2,135.5 -142.7,135.5C764.4,866.3 700.9,805.2 700.9,729.8M843.6,661.5c-18.9,0 -37.1,7.2 -50.4,20c-13.4,12.8 -20.9,30.2 -20.9,48.3c0,18.1 7.5,35.5 20.9,48.3c13.4,12.8 31.5,20 50.4,20c18.9,0 37.1,-7.2 50.4,-20c13.4,-12.8 20.9,-30.2 20.9,-48.3c0,-18.1 -7.5,-35.5 -20.9,-48.3C880.7,668.7 862.5,661.5 843.6,661.5L843.6,661.5zM843.6,661.5"/><path fill="#ffffffff" d="M1115.6,520.4l0,89l49,0l0,-83.3"/><path fill="#00000000" d="M1067.1,349.1l66.7,8.8c18.7,24.4 29.2,38.1 47.9,62.5l-10.1,76.5c-24.4,18.7 -38.1,29.2 -62.5,47.9l-66.7,-8.8c-18.7,-24.4 -29.2,-38.1 -47.9,-62.5l10.1,-76.5C1029,378.3 1042.7,367.8 1067.1,349.1z" stroke="#ffffffff" stroke-width="49.5"/><path fill="#00000000" d="M1143.2,747l-0.2,-112.4c0.1,0 0.1,0 0.2,0c60.2,0 109.8,50.7 109.8,112.4c0,61.7 -49.6,112.4 -109.8,112.4L1143.2,747z" stroke="#ffffffff" stroke-width="55.0"/></g></svg>
