<svg id="vector" xmlns="http://www.w3.org/2000/svg" width="108.0d" height="108.0d" viewBox="0 0 108.0 108.0"><g transform="translate(32.812027, 29.16) scale(0.2942774, 0.2942774)" id="g_0"><g transform="translate(0, 134.85938)"><path fill="#fefefeff" d="M85.5,-84.9375L85.5,-65.25L135.5625,-65.25L135.5625,-54.5625L48.375,-54.5625L48.375,-65.25L74.25,-65.25L74.25,-115.3125L85.5,-115.3125L85.5,-95.625L127.6875,-95.625L127.6875,-84.9375L85.5,-84.9375ZM74.25,-50.625L85.5,-50.625L85.5,-36Q111.9375,-25.3125,131.0625,-14.625L123.1875,-3.375Q105.1875,-15.1875,85.5,-23.625L85.5,12.9375L74.25,12.9375L74.25,-50.625ZM46.6875,-104.0625L46.6875,-15.1875L35.4375,-15.1875L35.4375,-24.1875L23.0625,-24.1875L23.0625,-10.125L11.8125,-10.125L11.8125,-104.0625L46.6875,-104.0625ZM23.0625,-34.875L35.4375,-34.875L35.4375,-93.375L23.0625,-93.375L23.0625,-34.875Z"/></g></g></svg>