<svg id="vector" xmlns="http://www.w3.org/2000/svg" width="108.0" height="108.0" viewBox="0 0 108.0 108.0"><path fill="#26a69aff" d="M0,0h108v108h-108z" id="path_0"/><path fill="#00000000" d="M9,0L9,108" stroke="#ffffff33" stroke-width="0.8" id="path_1"/><path fill="#00000000" d="M19,0L19,108" stroke="#ffffff33" stroke-width="0.8" id="path_2"/><path fill="#00000000" d="M29,0L29,108" stroke="#ffffff33" stroke-width="0.8" id="path_3"/><path fill="#00000000" d="M39,0L39,108" stroke="#ffffff33" stroke-width="0.8" id="path_4"/><path fill="#00000000" d="M49,0L49,108" stroke="#ffffff33" stroke-width="0.8" id="path_5"/><path fill="#00000000" d="M59,0L59,108" stroke="#ffffff33" stroke-width="0.8" id="path_6"/><path fill="#00000000" d="M69,0L69,108" stroke="#ffffff33" stroke-width="0.8" id="path_7"/><path fill="#00000000" d="M79,0L79,108" stroke="#ffffff33" stroke-width="0.8" id="path_8"/><path fill="#00000000" d="M89,0L89,108" stroke="#ffffff33" stroke-width="0.8" id="path_9"/><path fill="#00000000" d="M99,0L99,108" stroke="#ffffff33" stroke-width="0.8" id="path_10"/><path fill="#00000000" d="M0,9L108,9" stroke="#ffffff33" stroke-width="0.8" id="path_11"/><path fill="#00000000" d="M0,19L108,19" stroke="#ffffff33" stroke-width="0.8" id="path_12"/><path fill="#00000000" d="M0,29L108,29" stroke="#ffffff33" stroke-width="0.8" id="path_13"/><path fill="#00000000" d="M0,39L108,39" stroke="#ffffff33" stroke-width="0.8" id="path_14"/><path fill="#00000000" d="M0,49L108,49" stroke="#ffffff33" stroke-width="0.8" id="path_15"/><path fill="#00000000" d="M0,59L108,59" stroke="#ffffff33" stroke-width="0.8" id="path_16"/><path fill="#00000000" d="M0,69L108,69" stroke="#ffffff33" stroke-width="0.8" id="path_17"/><path fill="#00000000" d="M0,79L108,79" stroke="#ffffff33" stroke-width="0.8" id="path_18"/><path fill="#00000000" d="M0,89L108,89" stroke="#ffffff33" stroke-width="0.8" id="path_19"/><path fill="#00000000" d="M0,99L108,99" stroke="#ffffff33" stroke-width="0.8" id="path_20"/><path fill="#00000000" d="M19,29L89,29" stroke="#ffffff33" stroke-width="0.8" id="path_21"/><path fill="#00000000" d="M19,39L89,39" stroke="#ffffff33" stroke-width="0.8" id="path_22"/><path fill="#00000000" d="M19,49L89,49" stroke="#ffffff33" stroke-width="0.8" id="path_23"/><path fill="#00000000" d="M19,59L89,59" stroke="#ffffff33" stroke-width="0.8" id="path_24"/><path fill="#00000000" d="M19,69L89,69" stroke="#ffffff33" stroke-width="0.8" id="path_25"/><path fill="#00000000" d="M19,79L89,79" stroke="#ffffff33" stroke-width="0.8" id="path_26"/><path fill="#00000000" d="M29,19L29,89" stroke="#ffffff33" stroke-width="0.8" id="path_27"/><path fill="#00000000" d="M39,19L39,89" stroke="#ffffff33" stroke-width="0.8" id="path_28"/><path fill="#00000000" d="M49,19L49,89" stroke="#ffffff33" stroke-width="0.8" id="path_29"/><path fill="#00000000" d="M59,19L59,89" stroke="#ffffff33" stroke-width="0.8" id="path_30"/><path fill="#00000000" d="M69,19L69,89" stroke="#ffffff33" stroke-width="0.8" id="path_31"/><path fill="#00000000" d="M79,19L79,89" stroke="#ffffff33" stroke-width="0.8" id="path_32"/><path fill="@drawable/$ic_launcher_foreground__0" d="M32,64C32,64 38.39,52.99 44.13,50.95C51.37,48.37 70.14,49.57 70.14,49.57L108.26,87.69L108,109.01L75.97,107.97L32,64Z" stroke="#00000000" stroke-width="1.0" fill-rule="evenodd" id="path_0"/><path fill="#ffffffff" d="M66.94,46.02L66.94,46.02C72.44,50.07 76,56.61 76,64L32,64C32,56.61 35.56,50.11 40.98,46.06L36.18,41.19C35.45,40.45 35.45,39.3 36.18,38.56C36.91,37.81 38.05,37.81 38.78,38.56L44.25,44.05C47.18,42.57 50.48,41.71 54,41.71C57.48,41.71 60.78,42.57 63.68,44.05L69.11,38.56C69.84,37.81 70.98,37.81 71.71,38.56C72.44,39.3 72.44,40.45 71.71,41.19L66.94,46.02ZM62.94,56.92C64.08,56.92 65,56.01 65,54.88C65,53.76 64.08,52.85 62.94,52.85C61.8,52.85 60.88,53.76 60.88,54.88C60.88,56.01 61.8,56.92 62.94,56.92ZM45.06,56.92C46.2,56.92 47.13,56.01 47.13,54.88C47.13,53.76 46.2,52.85 45.06,52.85C43.92,52.85 43,53.76 43,54.88C43,56.01 43.92,56.92 45.06,56.92Z" stroke="#00000000" stroke-width="1.0" fill-rule="nonzero" id="path_1"/></svg>
