<?xml version="1.0" encoding="UTF-8"?>
<svg xmlns="http://www.w3.org/2000/svg" viewBox="0 0 1501 1501">
    <g transform="scale(1.15, 1.15) translate(-112.575, -112.575)">
        <path fill="#ffcfd8dc" d="M966,560.8c-4.8,0 -8.6,3.9 -8.6,8.6v362.1c0,4.8 3.9,8.6 8.6,8.6s8.6,-3.9 8.6,-8.6v-362.1c0,-4.8 -3.9,-8.6 -8.6,-8.6ZM931.5,526.4h-362.1c-4.8,0 -8.6,3.9 -8.6,8.6s3.9,8.6 8.6,8.6h362.1c4.8,0 8.6,-3.9 8.6,-8.6s-3.9,-8.6 -8.6,-8.6ZM931.5,957.4h-362.1c-4.8,0 -8.6,3.9 -8.6,8.6s3.9,8.6 8.6,8.6h362.1c4.8,0 8.6,-3.9 8.6,-8.6s-3.9,-8.6 -8.6,-8.6ZM535,560.8c-4.8,0 -8.6,3.9 -8.6,8.6v362.1c0,4.8 3.9,8.6 8.6,8.6s8.6,-3.9 8.6,-8.6v-362.1c0,-4.8 -3.9,-8.6 -8.6,-8.6Z" />
        <path fill="#ff57a0d7" d="M500.5,500.5h69v69h-69z" />
        <path fill="#ff57a0d7" d="M931.5,500.5h69v69h-69z" />
        <path fill="#ff57a0d7" d="M500.5,931.5h69v69h-69z" />
        <path fill="#ff57a0d7" d="M931.5,931.5h69v69h-69z" />
    </g>
</svg>
