<?xml version="1.0" encoding="utf-8"?>
<svg viewBox="0 0 106 114.3" xmlns="http://www.w3.org/2000/svg">
    <g transform="scale(0.37095362 0.4) translate(33.33946 34.29)">
        <path d="M94.1,54.4V4.9c0,-2.7 -2.2,-4.9 -4.9,-4.9s-4.9,2.2 -4.9,4.9v49.5H21.6v-22.5c0,-2.7 -2.2,-4.9 -4.9,-4.9s-4.9,2.2 -4.9,4.9v22.5c-6.6,0.3 -11.7,5.8 -11.8,12.4v29.6c0,6.6 5.2,12 11.8,12.4v0.6c0,2.7 2.2,4.9 4.9,4.9s4.9,-2.2 4.9,-4.9v-0.6h62.8v0.6c0,2.7 2.2,4.9 4.9,4.9s4.9,-2.2 4.9,-4.9v-0.6c6.6,-0.3 11.7,-5.8 11.8,-12.4v-29.6c0,-6.6 -5.3,-12 -11.9,-12.4Z" fill="#000000" stroke-width="0.0" />
        <path d="M53,31.8c-5.3,0 -10.3,2.6 -13.3,7.1 -1.5,2.2 -1,5.3 1.3,6.8 0.8,0.5 1.8,0.8 2.8,0.8 1.6,0 3.1,-0.8 4,-2.1 2,-2.9 5.9,-3.7 8.8,-1.7 0.7,0.4 1.2,1 1.7,1.7 0.9,1.3 2.4,2.1 4,2.1s1.9,-0.3 2.8,-0.8c2.2,-1.5 2.8,-4.6 1.3,-6.8 -3.1,-4.5 -8.1,-7.1 -13.4,-7.1Z" fill="#000000" stroke-width="0.0" />
        <path d="M78,29.1c-9.4,-13.8 -28.2,-17.4 -42,-8 -3.1,2.1 -5.8,4.8 -8,8 -1.5,2.2 -1,5.3 1.3,6.8 0.8,0.6 1.8,0.9 2.8,0.9 1.6,0 3.1,-0.8 4,-2.1 6.4,-9.3 19.1,-11.8 28.4,-5.4 2.1,1.4 4,3.3 5.4,5.4 1.5,2.2 4.5,2.8 6.8,1.4 2.2,-1.6 2.8,-4.6 1.3,-7q0,0 0,0Z" fill="#000000" stroke-width="0.0" />
    </g>
</svg>
