<?xml version="1.0" encoding="UTF-8"?>
<svg xmlns="http://www.w3.org/2000/svg" viewBox="0 0 108 108">
    <path d="M35.07,39.3C43.46,39.32 51.86,39.3 60.26,39.31C61.6,39.32 62.94,39.93 63.71,41.06C66.78,45.36 69.83,49.69 72.9,54C69.87,58.26 66.85,62.53 63.82,66.79C63.05,68 61.67,68.69 60.25,68.69C51.86,68.7 43.46,68.68 35.07,68.7C38.25,63.81 41.39,58.9 44.55,54C41.39,49.1 38.24,44.2 35.07,39.3M42.47,43.47C44.93,46.96 47.32,50.5 49.77,54C47.32,57.5 44.93,61.04 42.47,64.53C48.41,64.54 54.35,64.53 60.29,64.54C62.76,61.03 65.22,57.51 67.69,54C65.22,50.49 62.76,46.97 60.29,43.46C54.35,43.47 48.41,43.46 42.47,43.47ZM42.47,43.47" fill="#ffffff"/>
</svg>
