<svg style="background:#ffffffff" id="vector" xmlns="http://www.w3.org/2000/svg" width="108.0d" height="108.0d" viewBox="0 0 108.0 108.0"><path fill="#394fcbff" d="M53.07,33.07C56.64,32.82 60.3,33.92 63.09,36.18C66.3,38.68 68.41,42.59 68.62,46.66C68.8,47.86 68.57,49.06 68.5,50.26C68.01,54.79 65.41,58.69 62.68,62.19C61.05,64.18 59.55,66.27 58.26,68.5C57.38,70.16 56.63,71.89 55.85,73.6C55.5,74.31 54.86,75.02 53.99,74.97C53.13,75.02 52.5,74.3 52.15,73.61C51.06,71.24 50.08,68.8 48.6,66.64C47.41,64.64 45.89,62.86 44.45,61.03C42.66,58.57 40.9,55.98 40.07,53.01C39.06,49.42 38.98,45.45 40.48,41.97C42.55,36.95 47.62,33.3 53.07,33.07M52.61,43.14C50.39,43.75 48.68,45.93 48.79,48.25C48.73,51.12 51.38,53.72 54.26,53.52C56.94,53.42 59.25,50.95 59.21,48.27C59.31,46.27 58.05,44.36 56.28,43.48C55.15,42.91 53.82,42.9 52.61,43.14ZM52.61,43.14" id="path_0"/></svg>