<svg style="background-color:#ffffffff" id="vector" xmlns="http://www.w3.org/2000/svg" width="108.0" height="108.0" viewBox="0 0 144.0 168.82031"><g transform="translate(43.74937, 45.581482) scale(0.39236987, 0.46)" id="g_0"><g transform="translate(0, 134.85938)"><path fill="#f35d19ff" d="M120.375,-115.875L126,-105.75Q104.0625,-103.5,77.0625,-102.375L77.0625,-84.9375L93.9375,-84.9375Q99,-92.8125,102.9375,-100.6875L115.3125,-97.3125Q111.375,-90.5625,106.875,-84.9375L134.4375,-84.9375L134.4375,-74.8125L87.1875,-74.8125Q108,-60.75,137.8125,-54.5625L131.625,-42.75Q98.4375,-52.875,77.0625,-72.5625L77.0625,-47.8125L65.8125,-47.8125L65.8125,-72Q45,-53.4375,13.5,-43.3125L6.1875,-52.875Q37.125,-61.875,54.5625,-74.8125L10.125,-74.8125L10.125,-84.9375L36,-84.9375Q33.75,-89.4375,30.9375,-93.375L39.9375,-99.5625Q45,-93.375,48.9375,-84.9375L65.8125,-84.9375L65.8125,-101.8125Q45,-100.6875,21.9375,-100.125L18.5625,-110.25Q69.1875,-110.25,120.375,-115.875ZM118.6875,-43.875L118.6875,13.5L108,13.5L108,9.5625L34.875,9.5625L34.875,13.5L24.1875,13.5L24.1875,-43.875L118.6875,-43.875ZM34.875,-21.9375L65.8125,-21.9375L65.8125,-33.75L34.875,-33.75L34.875,-21.9375ZM76.5,-33.75L76.5,-21.9375L108,-21.9375L108,-33.75L76.5,-33.75ZM34.875,-0.5625L65.8125,-0.5625L65.8125,-12.375L34.875,-12.375L34.875,-0.5625ZM76.5,-0.5625L108,-0.5625L108,-12.375L76.5,-12.375L76.5,-0.5625Z"/></g></g></svg>
