<svg id="vector" xmlns="http://www.w3.org/2000/svg" width="48.0" height="48.0" viewBox="0 0 1024.0 1024.0"><path fill="#2c2c2cff" d="M448,224a32,32 0,0 1,3.1 63.9L448,288h-149.3a53.3,53.3 0,0 0,-53.2 49.8L245.3,341.3v426.7a53.3,53.3 0,0 0,49.8 53.2L298.7,821.3h426.7a53.3,53.3 0,0 0,53.2 -49.8L778.7,768v-149.3a32,32 0,0 1,63.9 -3.1L842.7,618.7v149.3a117.3,117.3 0,0 1,-112.6 117.2L725.3,885.3H298.7a117.3,117.3 0,0 1,-117.2 -112.6L181.3,768V341.3a117.3,117.3 0,0 1,112.6 -117.2L298.7,224h149.3z" id="path_0"/><path fill="#2c2c2cff" d="M733.9,224h-102.4a108.8,108.8 0,0 0,-108.8 108.8v102.4a108.8,108.8 0,0 0,108.8 108.8h102.4a108.8,108.8 0,0 0,108.8 -108.8v-102.4a108.8,108.8 0,0 0,-108.8 -108.8zM631.5,288h102.4c24.7,0 44.8,20.1 44.8,44.8v102.4a44.8,44.8 0,0 1,-44.8 44.8h-102.4a44.8,44.8 0,0 1,-44.8 -44.8v-102.4c0,-24.7 20.1,-44.8 44.8,-44.8z" id="path_1"/></svg>
