<?xml version="1.0" encoding="UTF-8"?>
<svg xmlns="http://www.w3.org/2000/svg" viewBox="0 0 108 108">
    <path fill="#FFFFFF" d="M45.25,35.98C47.59,33.7 51.7,33.77 54.01,36.07C52.56,37.61 51.02,39.07 49.59,40.61C50.54,41.63 51.56,42.57 52.52,43.57C52.02,44.05 51.53,44.55 51.05,45.06C52.31,46.29 53.53,47.55 54.79,48.78C56.07,47.49 57.32,46.16 58.61,44.87C57.82,42.41 58.29,39.52 60.05,37.59C62.15,35.11 66.03,34.3 68.86,35.98C66.99,37.87 65.11,39.74 63.23,41.62C64.32,42.63 65.37,43.68 66.38,44.77C68.26,42.89 70.13,41.01 72.02,39.14C72.79,40.53 73.12,42.19 72.79,43.75C72.35,46.36 70.36,48.61 67.86,49.41C66.33,49.91 64.66,49.84 63.13,49.39C55.18,57.34 47.21,65.26 39.23,73.18C37.75,71.71 36.29,70.25 34.82,68.77C39.98,63.57 45.18,58.41 50.35,53.23C49.13,51.95 47.83,50.75 46.62,49.45C46.13,49.96 45.64,50.46 45.14,50.96C44.09,49.97 43.09,48.93 42.04,47.96C42.08,49.96 42.07,51.97 42.05,53.97C41.64,54.53 41.07,54.96 40.63,55.49C38.16,52.98 35.68,50.5 33.23,47.99C33.73,47.49 34.23,47 34.73,46.5C36.68,46.5 38.64,46.5 40.59,46.5C39.62,45.52 38.64,44.55 37.67,43.56C40.19,41.04 42.71,38.5 45.25,35.98ZM45.25,35.98" />
    <path fill="#FFFFFF" d="M62.09,56.26L62.25,56.26C66.43,60.42 70.59,64.6 74.76,68.76C73.3,70.28 71.82,71.79 70.34,73.29C66.14,69.07 61.9,64.88 57.72,60.64C59.25,59.25 60.61,57.7 62.09,56.26ZM62.09,56.26" />
</svg>
