<svg id="vector" xmlns="http://www.w3.org/2000/svg" width="504.0d" height="366.0d" viewBox="0 0 504.0 366.0"><path fill="#00c853ff" d="M389.5,366H0L389.5,82.868V366ZM282,246C282,229.431 295.431,216 312,216H355C371.569,216 385,229.431 385,246V258H321C315.477,258 311,262.477 311,268C311,273.523 315.477,278 321,278H385V330C385,346.569 371.569,360 355,360H312C295.431,360 282,346.569 282,330V317H348C353.523,317 358,312.523 358,307C358,301.477 353.523,297 348,297H282V246Z" fill-rule="evenodd" id="path_0"/><path fill="#009624ff" d="M503.5,0V366H389.5V82.868L503.5,0ZM393,246C393,229.431 406.431,216 423,216H466C482.569,216 496,229.431 496,246V279H442C436.477,279 432,283.477 432,289V315.5C432,321.023 436.477,325.5 442,325.5C447.523,325.5 452,321.023 452,315.5V299H496V330C496,346.569 482.569,360 466,360H423C406.431,360 393,346.569 393,330V246Z" fill-rule="evenodd" id="path_1"/></svg>