<svg style="background:@android:color/system_accent1_300" id="vector" xmlns="http://www.w3.org/2000/svg" width="200.0d" height="200.0d" viewBox="0 0 432.0 432.0"><path fill="@android:color/system_accent1_0" d="M141.7,165.99L196.19,140.58A23.19,23.19 110,0 1,227 151.79L252.45,206.36A23.19,23.19 110,0 1,241.23 237.18L186.75,262.59A23.19,23.19 110,0 1,155.93 251.37L130.48,196.8A23.19,23.19 110,0 1,141.7 165.99z" id="path_0"/><path fill="none" d="M265.33,191.94a52.8,52.8 0,1 1,-63.62 83.72" stroke="@android:color/system_accent1_0" stroke-width="21.0" stroke-linecap="round" id="path_1"/><path fill="@android:color/system_accent1_0" d="M268.8,152.54m-13.66,0a13.66,13.66 0,1 1,27.32 0a13.66,13.66 0,1 1,-27.32 0" id="path_2"/></svg>