<svg style="background-color:#055280ff" id="vector" xmlns="http://www.w3.org/2000/svg" width="108.0" height="108.0" viewBox="0 0 24.0 24.0"><g transform="translate(4.2, 4.2) scale(0.65, 0.65)" id="g_0"><g><g><path fill="#ffffffff" d="M3,18L16,18L16,16L3,16ZM3,13L13,13L13,11L3,11ZM3,6L3,8L16,8L16,6ZM21,15.59L17.42,12L21,8.41L19.59,7L14.59,12L19.59,17Z"/></g></g><path fill="#ffffffff" d="M16.399,16.842L17.47,15.771L20.5,18.802L19.429,19.872Z"/><path fill="#ffffffff" d="M18.278,14.231C19.253,14.231 20.045,13.438 20.045,12.463C20.045,12.17 19.965,11.898 19.838,11.655L18.475,13.019L17.722,12.266L19.086,10.903C18.843,10.777 18.571,10.696 18.278,10.696C17.303,10.696 16.51,11.489 16.51,12.463C16.51,12.67 16.55,12.867 16.616,13.049L15.682,13.984L14.783,13.085L15.141,12.726L14.429,12.014L15.5,10.943C14.909,10.352 13.949,10.352 13.359,10.943L11.571,12.731L12.283,13.443L10.859,13.443L10.5,13.802L12.288,15.59L12.646,15.231L12.646,13.802L13.359,14.514L13.717,14.155L14.616,15.054L10.874,18.797L11.944,19.867L17.692,14.125C17.874,14.191 18.071,14.231 18.278,14.231Z"/></g></svg>
