<svg style="background:#ffffffff" id="vector" xmlns="http://www.w3.org/2000/svg" width="108.0d" height="108.0d" viewBox="0 0 108.0 108.0"><g transform="translate(29.88, 29.656666) scale(0.54818183, 0.54818183)" id="g_0"><path fill="#0095ffa1" d="M67,57L21,57a17.389,17.389 0,0 1,6.736 -13.435A25.491,25.491 0,0 1,44 38a25.492,25.492 0,0 1,16.264 5.565A17.388,17.388 0,0 1,67 57Z"/><path fill="#0095ffff" d="M33,57L33,16l11,-12 11,12L55,57Z"/><path fill="#0095ffa1" d="M27,67h6v12h-6z"/><path fill="#0095ffa1" d="M41,63h6v21h-6z"/><path fill="#0095ffa1" d="M55,67h6v12h-6z"/><path fill="#5fbcffff" d="M44,27m-6,0a6,6 0,1 1,12 0a6,6 0,1 1,-12 0"/><path fill="#ffffffff" d="M44,27m-4,0a4,4 0,1 1,8 0a4,4 0,1 1,-8 0"/></g></svg>