<?xml version="1.0" encoding="UTF-8"?>
<svg xmlns="http://www.w3.org/2000/svg" viewBox="0 0 162 162" style="background-color: #2B7CD3;">
    <path fill="#00000000" d="M55.06,92.74A24.41,24.41,0,1,1,62.22,110,24.27,24.27,0,0,1,55.06,92.74Z" /> <!-- Replace #00000000 with the correct color -->
    <path fill="#00000000" d="M91.16,64.64a4.63,4.63,0,0,1-2.43,4.08l-8,4.36,2.59,4.73,2.59,4.73c1.92,3.51,2.88,5.28,2.69,6.47a4.65,4.65,0,0,1-2.47,3.46c-2.4,1-6.39-.83-8.71-5.32l-3.83-7L70,73.56a4.56,4.56,0,0,1,1.77-6.17l.43-.25c1.76-1,12.1-6.57,12.1-6.57a4.66,4.66,0,0,1,6.9,4.07Z" /> <!-- Replace #00000000 with the correct color -->
    <path fill="#00000000" d="M69.29,93A10.4,10.4,0,1,1,87,100.28a10.42,10.42,0,0,1-14.7,0,10.35,10.35,0,0,1-3-7.32Z" /> <!-- Replace #00000000 with the correct color -->
</svg>
